<mxfile host="65bd71144e">
    <diagram id="concept-architecture-traceability" name="Concept-to-Architecture Mapping">
        <mxGraphModel dx="636" dy="594" grid="1" gridSize="10" guides="1" tooltips="1" connect="1" arrows="1" fold="1" page="1" pageScale="1" pageWidth="850" pageHeight="1100" math="0" shadow="0">
            <root>
                <mxCell id="0"/>
                <mxCell id="1" parent="0"/>
                <mxCell id="concept-group" value="Technology Concept" style="swimlane;fontStyle=0;childLayout=stackLayout;horizontal=1;startSize=30;horizontalStack=0;resizeParent=1;resizeParentMax=0;resizeLast=0;collapsible=1;marginBottom=0;whiteSpace=wrap;html=1;fillColor=#f9f9f9;strokeColor=#666666;" parent="1" vertex="1">
                    <mxGeometry x="120" y="160" width="160" height="560" as="geometry"/>
                </mxCell>
                <mxCell id="concept-auth" value="Authentication" style="rounded=1;whiteSpace=wrap;html=1;fillColor=#f9f9f9;strokeColor=#333333;" parent="1" vertex="1">
                    <mxGeometry x="140" y="200" width="120" height="30" as="geometry"/>
                </mxCell>
                <mxCell id="concept-auth2" value="Authorization" style="rounded=1;whiteSpace=wrap;html=1;fillColor=#f9f9f9;strokeColor=#333333;" parent="1" vertex="1">
                    <mxGeometry x="140" y="240" width="120" height="30" as="geometry"/>
                </mxCell>
                <mxCell id="concept-reg" value="Registration" style="rounded=1;whiteSpace=wrap;html=1;fillColor=#f9f9f9;strokeColor=#333333;" parent="1" vertex="1">
                    <mxGeometry x="140" y="280" width="120" height="30" as="geometry"/>
                </mxCell>
                <mxCell id="concept-wfl" value="Workflow" style="rounded=1;whiteSpace=wrap;html=1;fillColor=#f9f9f9;strokeColor=#333333;" parent="1" vertex="1">
                    <mxGeometry x="140" y="320" width="120" height="30" as="geometry"/>
                </mxCell>
                <mxCell id="concept-src" value="Sourcing" style="rounded=1;whiteSpace=wrap;html=1;fillColor=#f9f9f9;strokeColor=#333333;" parent="1" vertex="1">
                    <mxGeometry x="140" y="360" width="120" height="30" as="geometry"/>
                </mxCell>
                <mxCell id="concept-scr" value="Screening" style="rounded=1;whiteSpace=wrap;html=1;fillColor=#f9f9f9;strokeColor=#333333;" parent="1" vertex="1">
                    <mxGeometry x="140" y="400" width="120" height="30" as="geometry"/>
                </mxCell>
                <mxCell id="concept-short" value="Shortlisting" style="rounded=1;whiteSpace=wrap;html=1;fillColor=#f9f9f9;strokeColor=#333333;" parent="1" vertex="1">
                    <mxGeometry x="140" y="440" width="120" height="30" as="geometry"/>
                </mxCell>
                <mxCell id="concept-pub" value="Publishing" style="rounded=1;whiteSpace=wrap;html=1;fillColor=#f9f9f9;strokeColor=#333333;" parent="1" vertex="1">
                    <mxGeometry x="140" y="480" width="120" height="30" as="geometry"/>
                </mxCell>
                <mxCell id="concept-sch" value="Scheduling" style="rounded=1;whiteSpace=wrap;html=1;fillColor=#f9f9f9;strokeColor=#333333;" parent="1" vertex="1">
                    <mxGeometry x="140" y="520" width="120" height="30" as="geometry"/>
                </mxCell>
                <mxCell id="concept-not" value="Notifications" style="rounded=1;whiteSpace=wrap;html=1;fillColor=#f9f9f9;strokeColor=#333333;" parent="1" vertex="1">
                    <mxGeometry x="140" y="560" width="120" height="30" as="geometry"/>
                </mxCell>
                <mxCell id="concept-data" value="Data Analytics" style="rounded=1;whiteSpace=wrap;html=1;fillColor=#f9f9f9;strokeColor=#333333;" parent="1" vertex="1">
                    <mxGeometry x="140" y="600" width="120" height="30" as="geometry"/>
                </mxCell>
                <mxCell id="concept-pay" value="Payments" style="rounded=1;whiteSpace=wrap;html=1;fillColor=#f9f9f9;strokeColor=#333333;" parent="1" vertex="1">
                    <mxGeometry x="140" y="640" width="120" height="30" as="geometry"/>
                </mxCell>
                <mxCell id="concept-act" value="Activity" style="rounded=1;whiteSpace=wrap;html=1;fillColor=#f9f9f9;strokeColor=#333333;" parent="1" vertex="1">
                    <mxGeometry x="140" y="680" width="120" height="30" as="geometry"/>
                </mxCell>
                <mxCell id="arch-group" value="High-Level Architecture" style="swimlane;fontStyle=0;childLayout=stackLayout;horizontal=1;startSize=30;horizontalStack=0;resizeParent=1;resizeParentMax=0;resizeLast=0;collapsible=1;marginBottom=0;whiteSpace=wrap;html=1;fillColor=#f5f5f5;strokeColor=#666666;" parent="1" vertex="1">
                    <mxGeometry x="520" y="160" width="200" height="560" as="geometry"/>
                </mxCell>
                <mxCell id="arch-sec" value="Security Framework §1" style="rounded=1;whiteSpace=wrap;html=1;fillColor=#dae8fc;strokeColor=#6c8ebf;" parent="1" vertex="1">
                    <mxGeometry x="550" y="200" width="140" height="30" as="geometry"/>
                </mxCell>
                <mxCell id="arch-cd" value="Candidate Domain §2" style="rounded=1;whiteSpace=wrap;html=1;fillColor=#dae8fc;strokeColor=#6c8ebf;" parent="1" vertex="1">
                    <mxGeometry x="550" y="240" width="140" height="30" as="geometry"/>
                </mxCell>
                <mxCell id="arch-sd" value="Sourcing Domain §3" style="rounded=1;whiteSpace=wrap;html=1;fillColor=#dae8fc;strokeColor=#6c8ebf;" parent="1" vertex="1">
                    <mxGeometry x="550" y="280" width="140" height="30" as="geometry"/>
                </mxCell>
                <mxCell id="arch-scd" value="Screening Domain §4" style="rounded=1;whiteSpace=wrap;html=1;fillColor=#dae8fc;strokeColor=#6c8ebf;" parent="1" vertex="1">
                    <mxGeometry x="550" y="320" width="140" height="30" as="geometry"/>
                </mxCell>
                <mxCell id="arch-pd" value="Publishing Domain §7" style="rounded=1;whiteSpace=wrap;html=1;fillColor=#dae8fc;strokeColor=#6c8ebf;" parent="1" vertex="1">
                    <mxGeometry x="550" y="360" width="140" height="30" as="geometry"/>
                </mxCell>
                <mxCell id="arch-rd" value="Recruitment Pipeline Domain §8" style="rounded=1;whiteSpace=wrap;html=1;fillColor=#dae8fc;strokeColor=#6c8ebf;" parent="1" vertex="1">
                    <mxGeometry x="550" y="400" width="140" height="30" as="geometry"/>
                </mxCell>
                <mxCell id="arch-id" value="Interview Domain §9" style="rounded=1;whiteSpace=wrap;html=1;fillColor=#dae8fc;strokeColor=#6c8ebf;" parent="1" vertex="1">
                    <mxGeometry x="550" y="440" width="140" height="30" as="geometry"/>
                </mxCell>
                <mxCell id="arch-schd" value="Scheduling Domain §10" style="rounded=1;whiteSpace=wrap;html=1;fillColor=#dae8fc;strokeColor=#6c8ebf;" parent="1" vertex="1">
                    <mxGeometry x="550" y="480" width="140" height="30" as="geometry"/>
                </mxCell>
                <mxCell id="arch-coms" value="Communications Domain §11" style="rounded=1;whiteSpace=wrap;html=1;fillColor=#dae8fc;strokeColor=#6c8ebf;" parent="1" vertex="1">
                    <mxGeometry x="550" y="520" width="140" height="30" as="geometry"/>
                </mxCell>
                <mxCell id="arch-ad" value="Analytics Domain §12" style="rounded=1;whiteSpace=wrap;html=1;fillColor=#dae8fc;strokeColor=#6c8ebf;" parent="1" vertex="1">
                    <mxGeometry x="550" y="560" width="140" height="30" as="geometry"/>
                </mxCell>
                <mxCell id="arch-fd" value="Financial Domain §13" style="rounded=1;whiteSpace=wrap;html=1;fillColor=#dae8fc;strokeColor=#6c8ebf;" parent="1" vertex="1">
                    <mxGeometry x="550" y="600" width="140" height="30" as="geometry"/>
                </mxCell>
                <mxCell id="arch-aud" value="Audit Domain §15" style="rounded=1;whiteSpace=wrap;html=1;fillColor=#dae8fc;strokeColor=#6c8ebf;" parent="1" vertex="1">
                    <mxGeometry x="550" y="640" width="140" height="30" as="geometry"/>
                </mxCell>
                <mxCell id="conn1" value="" style="endArrow=classic;html=1;rounded=0;exitX=1;exitY=0.5;exitDx=0;exitDy=0;entryX=0;entryY=0.5;entryDx=0;entryDy=0;" parent="1" source="concept-auth" target="arch-sec" edge="1">
                    <mxGeometry width="50" height="50" relative="1" as="geometry">
                        <mxPoint x="400" y="420" as="sourcePoint"/>
                        <mxPoint x="450" y="370" as="targetPoint"/>
                    </mxGeometry>
                </mxCell>
                <mxCell id="conn2" value="" style="endArrow=classic;html=1;rounded=0;exitX=1;exitY=0.5;exitDx=0;exitDy=0;entryX=0;entryY=0.5;entryDx=0;entryDy=0;" parent="1" source="concept-auth2" target="arch-sec" edge="1">
                    <mxGeometry width="50" height="50" relative="1" as="geometry">
                        <mxPoint x="400" y="420" as="sourcePoint"/>
                        <mxPoint x="450" y="370" as="targetPoint"/>
                    </mxGeometry>
                </mxCell>
                <mxCell id="conn3" value="" style="endArrow=classic;html=1;rounded=0;exitX=1;exitY=0.5;exitDx=0;exitDy=0;entryX=0;entryY=0.5;entryDx=0;entryDy=0;" parent="1" source="concept-reg" target="arch-cd" edge="1">
                    <mxGeometry width="50" height="50" relative="1" as="geometry">
                        <mxPoint x="400" y="420" as="sourcePoint"/>
                        <mxPoint x="450" y="370" as="targetPoint"/>
                    </mxGeometry>
                </mxCell>
                <mxCell id="conn4" value="" style="endArrow=classic;html=1;rounded=0;exitX=1;exitY=0.5;exitDx=0;exitDy=0;entryX=0;entryY=0.5;entryDx=0;entryDy=0;" parent="1" source="concept-wfl" target="arch-rd" edge="1">
                    <mxGeometry width="50" height="50" relative="1" as="geometry">
                        <mxPoint x="400" y="420" as="sourcePoint"/>
                        <mxPoint x="450" y="370" as="targetPoint"/>
                    </mxGeometry>
                </mxCell>
                <mxCell id="conn5" value="" style="endArrow=classic;html=1;rounded=0;exitX=1;exitY=0.5;exitDx=0;exitDy=0;entryX=0;entryY=0.5;entryDx=0;entryDy=0;" parent="1" source="concept-src" target="arch-sd" edge="1">
                    <mxGeometry width="50" height="50" relative="1" as="geometry">
                        <mxPoint x="400" y="420" as="sourcePoint"/>
                        <mxPoint x="450" y="370" as="targetPoint"/>
                    </mxGeometry>
                </mxCell>
                <mxCell id="conn6" value="" style="endArrow=classic;html=1;rounded=0;exitX=1;exitY=0.5;exitDx=0;exitDy=0;entryX=0;entryY=0.5;entryDx=0;entryDy=0;" parent="1" source="concept-scr" target="arch-scd" edge="1">
                    <mxGeometry width="50" height="50" relative="1" as="geometry">
                        <mxPoint x="400" y="420" as="sourcePoint"/>
                        <mxPoint x="450" y="370" as="targetPoint"/>
                    </mxGeometry>
                </mxCell>
                <mxCell id="conn7" value="" style="endArrow=classic;html=1;rounded=0;exitX=1;exitY=0.5;exitDx=0;exitDy=0;entryX=0;entryY=0.5;entryDx=0;entryDy=0;" parent="1" source="concept-short" target="arch-scd" edge="1">
                    <mxGeometry width="50" height="50" relative="1" as="geometry">
                        <mxPoint x="400" y="420" as="sourcePoint"/>
                        <mxPoint x="450" y="370" as="targetPoint"/>
                    </mxGeometry>
                </mxCell>
                <mxCell id="conn8" value="" style="endArrow=classic;html=1;rounded=0;exitX=1;exitY=0.5;exitDx=0;exitDy=0;entryX=0;entryY=0.5;entryDx=0;entryDy=0;" parent="1" source="concept-pub" target="arch-pd" edge="1">
                    <mxGeometry width="50" height="50" relative="1" as="geometry">
                        <mxPoint x="400" y="420" as="sourcePoint"/>
                        <mxPoint x="450" y="370" as="targetPoint"/>
                    </mxGeometry>
                </mxCell>
                <mxCell id="conn9" value="" style="endArrow=classic;html=1;rounded=0;exitX=1;exitY=0.5;exitDx=0;exitDy=0;entryX=0;entryY=0.5;entryDx=0;entryDy=0;" parent="1" source="concept-sch" target="arch-schd" edge="1">
                    <mxGeometry width="50" height="50" relative="1" as="geometry">
                        <mxPoint x="400" y="420" as="sourcePoint"/>
                        <mxPoint x="450" y="370" as="targetPoint"/>
                    </mxGeometry>
                </mxCell>
                <mxCell id="conn10" value="" style="endArrow=classic;html=1;rounded=0;exitX=1;exitY=0.5;exitDx=0;exitDy=0;entryX=0;entryY=0.5;entryDx=0;entryDy=0;" parent="1" source="concept-not" target="arch-coms" edge="1">
                    <mxGeometry width="50" height="50" relative="1" as="geometry">
                        <mxPoint x="400" y="420" as="sourcePoint"/>
                        <mxPoint x="450" y="370" as="targetPoint"/>
                    </mxGeometry>
                </mxCell>
                <mxCell id="conn11" value="" style="endArrow=classic;html=1;rounded=0;exitX=1;exitY=0.5;exitDx=0;exitDy=0;entryX=0;entryY=0.5;entryDx=0;entryDy=0;" parent="1" source="concept-data" target="arch-ad" edge="1">
                    <mxGeometry width="50" height="50" relative="1" as="geometry">
                        <mxPoint x="400" y="420" as="sourcePoint"/>
                        <mxPoint x="450" y="370" as="targetPoint"/>
                    </mxGeometry>
                </mxCell>
                <mxCell id="conn12" value="" style="endArrow=classic;html=1;rounded=0;exitX=1;exitY=0.5;exitDx=0;exitDy=0;entryX=0;entryY=0.5;entryDx=0;entryDy=0;" parent="1" source="concept-pay" target="arch-fd" edge="1">
                    <mxGeometry width="50" height="50" relative="1" as="geometry">
                        <mxPoint x="400" y="420" as="sourcePoint"/>
                        <mxPoint x="450" y="370" as="targetPoint"/>
                    </mxGeometry>
                </mxCell>
                <mxCell id="conn13" value="" style="endArrow=classic;html=1;rounded=0;exitX=1;exitY=0.5;exitDx=0;exitDy=0;entryX=0;entryY=0.5;entryDx=0;entryDy=0;" parent="1" source="concept-act" target="arch-aud" edge="1">
                    <mxGeometry width="50" height="50" relative="1" as="geometry">
                        <mxPoint x="400" y="420" as="sourcePoint"/>
                        <mxPoint x="450" y="370" as="targetPoint"/>
                    </mxGeometry>
                </mxCell>
                <mxCell id="style1" value="" style="rounded=0;whiteSpace=wrap;html=1;fillColor=#f9f;strokeColor=#333;opacity=25;" parent="1" vertex="1">
                    <mxGeometry x="130" y="195" width="140" height="40" as="geometry"/>
                </mxCell>
                <mxCell id="style2" value="" style="rounded=0;whiteSpace=wrap;html=1;fillColor:#f9f;strokeColor:#333;opacity=25;" parent="1" vertex="1">
                    <mxGeometry x="130" y="355" width="140" height="40" as="geometry"/>
                </mxCell>
                <mxCell id="style3" value="" style="rounded=0;whiteSpace=wrap;html=1;fillColor:#f9f;strokeColor:#333;opacity=25;" parent="1" vertex="1">
                    <mxGeometry x="130" y="395" width="140" height="40" as="geometry"/>
                </mxCell>
                <mxCell id="style4" value="" style="rounded=0;whiteSpace=wrap;html=1;fillColor:#bbf;strokeColor:#333;opacity=25;" parent="1" vertex="1">
                    <mxGeometry x="540" y="195" width="160" height="40" as="geometry"/>
                </mxCell>
                <mxCell id="style5" value="" style="rounded=0;whiteSpace=wrap;html=1;fillColor:#bbf;strokeColor:#333;opacity=25;" parent="1" vertex="1">
                    <mxGeometry x="540" y="275" width="160" height="40" as="geometry"/>
                </mxCell>
                <mxCell id="style6" value="" style="rounded=0;whiteSpace=wrap;html=1;fillColor:#bbf;strokeColor:#333;opacity=25;" parent="1" vertex="1">
                    <mxGeometry x="540" y="315" width="160" height="40" as="geometry"/>
                </mxCell>
            </root>
        </mxGraphModel>
    </diagram>
</mxfile>